<svg width="100" height="100" xmlns="http://www.w3.org/2000/svg" viewBox="0 0 100 100" preserveAspectRatio="xMidYMid" class="uil-default"><path fill="none" class="bk" d="M0 0h100v100H0z"/><rect x="46.5" y="40" width="7" height="20" rx="5" ry="5" fill="#fff" transform="translate(0 -30)"><animate attributeName="opacity" from="1" to="0" dur=".9s" begin="0s" repeatCount="indefinite"/></rect><rect x="46.5" y="40" width="7" height="20" rx="5" ry="5" fill="#fff" transform="rotate(30 105.98 65)"><animate attributeName="opacity" from="1" to="0" dur=".9s" begin="0.075s" repeatCount="indefinite"/></rect><rect x="46.5" y="40" width="7" height="20" rx="5" ry="5" fill="#fff" transform="rotate(60 75.98 65)"><animate attributeName="opacity" from="1" to="0" dur=".9s" begin="0.15s" repeatCount="indefinite"/></rect><rect x="46.5" y="40" width="7" height="20" rx="5" ry="5" fill="#fff" transform="rotate(90 65 65)"><animate attributeName="opacity" from="1" to="0" dur=".9s" begin="0.225s" repeatCount="indefinite"/></rect><rect x="46.5" y="40" width="7" height="20" rx="5" ry="5" fill="#fff" transform="rotate(120 58.66 65)"><animate attributeName="opacity" from="1" to="0" dur=".9s" begin="0.3s" repeatCount="indefinite"/></rect><rect x="46.5" y="40" width="7" height="20" rx="5" ry="5" fill="#fff" transform="rotate(150 54.02 65)"><animate attributeName="opacity" from="1" to="0" dur=".9s" begin="0.375s" repeatCount="indefinite"/></rect><rect x="46.5" y="40" width="7" height="20" rx="5" ry="5" fill="#fff" transform="rotate(180 50 65)"><animate attributeName="opacity" from="1" to="0" dur=".9s" begin="0.45s" repeatCount="indefinite"/></rect><rect x="46.5" y="40" width="7" height="20" rx="5" ry="5" fill="#fff" transform="rotate(-150 45.98 65)"><animate attributeName="opacity" from="1" to="0" dur=".9s" begin="0.525s" repeatCount="indefinite"/></rect><rect x="46.5" y="40" width="7" height="20" rx="5" ry="5" fill="#fff" transform="rotate(-120 41.34 65)"><animate attributeName="opacity" from="1" to="0" dur=".9s" begin="0.6s" repeatCount="indefinite"/></rect><rect x="46.5" y="40" width="7" height="20" rx="5" ry="5" fill="#fff" transform="rotate(-90 35 65)"><animate attributeName="opacity" from="1" to="0" dur=".9s" begin="0.6749999999999999s" repeatCount="indefinite"/></rect><rect x="46.5" y="40" width="7" height="20" rx="5" ry="5" fill="#fff" transform="rotate(-60 24.02 65)"><animate attributeName="opacity" from="1" to="0" dur=".9s" begin="0.75s" repeatCount="indefinite"/></rect><rect x="46.5" y="40" width="7" height="20" rx="5" ry="5" fill="#fff" transform="rotate(-30 -5.98 65)"><animate attributeName="opacity" from="1" to="0" dur=".9s" begin="0.8250000000000001s" repeatCount="indefinite"/></rect></svg>