<svg xmlns="http://www.w3.org/2000/svg" viewBox="0 0 93.8 64.9"><path d="M25.8 4.8c-.6-.6-1.4-1.1-2.2-1.6-.8-.5-1.6-.9-2.6-1.2-.9-.3-1.9-.6-3-.8-1-.2-2.1-.3-3.2-.3-2 0-3.7.3-5.2.9-1.5.6-2.8 1.4-3.9 2.4S3.9 6.3 3.3 7.6c-.5 1.3-.8 2.6-.8 3.9 0 1.7.2 3.1.7 4.2.5 1.3 1.1 2.2 1.8 3 .7.8 1.6 1.4 2.6 1.8 1 .5 1.9.9 2.9 1.2 1 .3 2 .6 2.9.9 1 .3 1.8.6 2.6.9.7.3 1.4.8 1.8 1.3.5.5.7 1.2.7 2 0 1.4-.4 2.5-1.3 3.2-.8.7-2 1-3.5 1-1.1 0-2.1-.2-2.9-.5-.8-.3-1.5-.7-2.2-1-.6-.4-1.2-.7-1.7-1-.5-.3-1-.5-1.5-.5-.4 0-.7.1-1.1.3-.3.2-.5.4-.7.7l-2.5 3.9c.7.7 1.5 1.3 2.5 1.9 1 .6 2 1.1 3.1 1.5 1.1.4 2.2.7 3.4 1 1.2.2 2.3.3 3.4.3 2 0 3.9-.3 5.5-.9 1.6-.6 2.9-1.5 4-2.5 1.1-1.1 1.9-2.3 2.5-3.8.6-1.4.9-3 .9-4.7 0-1.5-.2-2.8-.7-3.8-.5-1.1-1.1-2-1.8-2.7-.7-.7-1.6-1.3-2.6-1.8s-1.9-.9-2.9-1.2c-1-.4-2-.7-2.9-1-1-.3-1.8-.6-2.6-.9-.7-.3-1.4-.8-1.8-1.2-.5-.5-.7-1.1-.7-1.8 0-1.1.4-2 1.1-2.7.8-.7 1.9-1 3.5-1 .9 0 1.7.1 2.4.4.7.2 1.3.5 1.9.8.6.3 1 .6 1.5.8.4.2.8.4 1.2.4.4 0 .8-.1 1-.3.3-.2.5-.5.8-.9l2-4zm9.6 12.1h36.2c1.7 0 3.1 1.4 3.1 3.1 0 1.7-1.4 3.1-3.1 3.1H35.4c-1.7 0-3.1-1.4-3.1-3.1 0-1.7 1.4-3.1 3.1-3.1zm0 13.6h36.2c1.7 0 3.1 1.4 3.1 3.1 0 1.7-1.4 3.1-3.1 3.1H35.4c-1.7 0-3.1-1.4-3.1-3.1 0-1.7 1.4-3.1 3.1-3.1zM3.8 44h67.8c1.7 0 3.1 1.4 3.1 3.1 0 1.7-1.4 3.1-3.1 3.1H3.8c-1.7 0-3.1-1.4-3.1-3.1 0-1.7 1.4-3.1 3.1-3.1zm0 13.6h67.8c1.7 0 3.1 1.4 3.1 3.1 0 1.7-1.4 3.1-3.1 3.1H3.8c-1.7 0-3.1-1.4-3.1-3.1 0-1.7 1.4-3.1 3.1-3.1zM35.4 3.4h36.2c1.7 0 3.1 1.4 3.1 3.1 0 1.7-1.4 3.1-3.1 3.1H35.4c-1.7 0-3.1-1.4-3.1-3.1 0-1.7 1.4-3.1 3.1-3.1zm49.6 0v1h-1.9v5.3H82V4.4h-1.9v-1H85zm4 3.9c0 .1.1.2.1.3 0-.1.1-.2.1-.3 0-.1.1-.2.1-.3l1.8-3.5s0-.1.1-.1c0 0 .1 0 .1-.1h1.1v6.2h-1V5l-1.9 3.5c0 .1-.1.1-.2.2-.1 0-.1.1-.2.1h-.2c-.1 0-.2 0-.2-.1-.1 0-.1-.1-.2-.2L86.6 5v4.6h-1V3.4h1.1s.1 0 .1.1l.1.1 2 3.4c0 .1.1.2.1.3z"/></svg>