<?xml version="1.0" standalone="no"?>
<!DOCTYPE svg PUBLIC "-//W3C//DTD SVG 20010904//EN"
 "http://www.w3.org/TR/2001/REC-SVG-20010904/DTD/svg10.dtd">
<svg version="1.0" xmlns="http://www.w3.org/2000/svg"
 width="260.000000pt" height="260.000000pt" viewBox="0 0 260.000000 260.000000"
 preserveAspectRatio="xMidYMid meet">
<metadata>
Created by potrace 1.11, written by Peter Selinger 2001-2013
</metadata>
<g transform="translate(0.000000,260.000000) scale(0.100000,-0.100000)"
fill="#000000" stroke="none">
<path d="M547 2303 c-3 -2 -22 -7 -44 -9 -21 -3 -45 -6 -53 -7 -26 -5 -124
-57 -151 -80 -36 -32 -84 -105 -99 -151 -15 -45 -15 -171 -1 -208 5 -14 7 -29
4 -32 -4 -3 -1 -6 5 -6 7 0 12 -7 12 -15 0 -20 92 -111 121 -120 13 -4 26 -11
29 -14 3 -3 34 -16 70 -27 36 -12 92 -30 124 -40 93 -30 140 -86 126 -149 -1
-5 -3 -16 -4 -23 -5 -31 -70 -83 -88 -70 -2 1 -13 -4 -25 -11 -13 -6 -23 -8
-23 -4 0 4 -20 9 -45 9 -25 1 -52 7 -60 14 -8 7 -15 10 -15 6 0 -3 -15 3 -32
14 -18 11 -53 30 -77 41 -55 27 -78 17 -125 -55 -57 -87 -57 -88 -32 -111 54
-48 165 -100 229 -107 9 -1 17 -5 17 -9 0 -3 15 -7 33 -7 17 0 34 -1 37 -2 16
-5 110 -4 110 1 0 3 12 5 26 3 15 -1 36 1 48 6 27 11 50 18 56 17 12 -1 98 59
126 89 30 31 79 117 79 139 0 6 4 15 8 22 9 15 11 138 3 182 -7 33 -23 71 -35
81 -3 3 -11 14 -17 25 -21 40 -170 122 -254 141 -3 0 -13 4 -22 7 -45 17 -54
20 -71 24 -47 9 -107 79 -102 118 6 41 58 100 81 91 7 -3 16 -1 19 3 6 11 115
10 115 -2 0 -4 5 -5 10 -2 6 3 10 1 10 -5 0 -6 5 -8 11 -4 6 3 14 2 18 -3 3
-5 27 -19 53 -31 55 -26 84 -19 113 25 11 15 20 30 20 33 1 3 11 24 23 47 l22
42 -33 24 c-29 23 -93 59 -99 56 -2 0 -16 5 -33 11 -37 14 -60 20 -103 25 -18
2 -37 7 -42 10 -6 3 -10 1 -10 -5 0 -6 -4 -8 -10 -5 -15 9 -47 14 -53 8z"/>
<path d="M1185 2208 c-63 -35 -69 -127 -11 -170 22 -16 159 -29 172 -16 3 3
21 2 40 -2 19 -4 36 -4 39 0 3 4 21 4 40 0 19 -4 37 -4 40 0 3 4 21 4 40 0 19
-4 37 -4 40 0 3 4 21 4 40 0 19 -4 37 -4 40 0 3 4 21 4 40 0 19 -4 37 -4 40 0
3 4 21 4 40 0 19 -4 37 -4 40 0 3 4 21 4 40 0 19 -4 37 -5 39 -1 2 3 48 4 101
1 53 -3 98 -3 100 0 2 3 56 3 120 0 64 -3 118 -3 120 -1 2 2 22 4 44 5 40 2
85 31 75 47 -3 5 0 9 5 9 6 0 11 17 11 38 0 39 -21 73 -55 90 -29 15 -1213 14
-1240 0z"/>
<path d="M2088 1794 c-3 -3 -202 -5 -442 -5 -507 0 -489 3 -512 -89 -6 -27 16
-78 42 -95 30 -19 218 -30 207 -12 -4 6 -1 7 6 2 20 -12 241 -14 234 -2 -4 6
-1 7 6 2 17 -10 242 -14 235 -4 -2 4 8 4 23 0 23 -6 489 -6 531 0 24 4 62 60
62 91 0 38 -26 83 -58 97 -15 7 -80 11 -167 10 -78 -1 -147 1 -152 4 -6 4 -13
4 -15 1z"/>
<path d="M1426 1362 c-3 -5 -53 -8 -111 -7 -59 0 -109 -3 -111 -7 -3 -5 -9 -6
-13 -4 -14 9 -53 -46 -56 -78 -4 -44 10 -73 45 -94 29 -18 63 -19 623 -19 326
0 597 2 602 6 6 3 12 6 15 6 14 1 38 22 49 42 20 39 13 81 -19 115 l-31 32
-117 0 c-64 1 -123 5 -129 9 -7 5 -19 5 -25 0 -18 -11 -201 -12 -215 -1 -7 5
-18 6 -25 1 -18 -11 -200 -12 -215 -1 -7 5 -18 6 -25 2 -17 -11 -207 -13 -214
-2 -7 10 -21 10 -28 0z"/>
<path d="M190 912 c-14 -7 -33 -23 -42 -35 -19 -24 -24 -97 -7 -97 5 0 8 -4 4
-9 -3 -5 7 -18 22 -29 27 -19 56 -19 1133 -20 1186 0 1129 -2 1167 47 15 19
17 87 3 96 -6 4 -8 10 -6 14 3 4 -9 16 -26 26 -30 17 -81 18 -1127 19 -880 1
-1100 -2 -1121 -12z"/>
<path d="M192 481 c-69 -34 -83 -108 -31 -160 18 -18 42 -31 57 -32 15 0 51
-1 80 -2 28 -1 52 2 52 6 0 5 5 5 12 1 18 -11 88 -11 88 1 0 7 3 7 8 0 10 -14
55 -18 46 -4 -4 8 0 8 15 0 16 -9 21 -9 21 1 0 8 3 9 8 3 9 -13 42 -16 42 -3
0 5 5 6 12 2 18 -11 88 -11 88 1 0 7 3 7 8 0 10 -14 55 -18 46 -4 -4 8 0 8 15
0 16 -9 21 -9 21 1 0 8 3 9 8 3 9 -13 42 -16 42 -3 0 5 5 6 12 2 18 -11 88
-11 88 1 0 7 3 7 8 0 8 -12 372 -14 372 -2 0 5 5 5 12 1 18 -11 88 -11 88 1 0
7 3 7 8 0 10 -14 55 -18 46 -4 -4 8 0 8 15 0 16 -9 21 -9 21 1 0 8 3 9 8 3 9
-13 42 -16 42 -3 0 5 5 6 12 2 18 -11 88 -11 88 1 0 7 3 7 8 0 10 -14 55 -18
46 -4 -4 8 0 8 15 0 16 -9 21 -9 21 1 0 8 3 9 8 3 9 -13 42 -16 42 -3 0 5 5 6
12 2 18 -11 88 -11 88 1 0 7 3 7 8 0 8 -12 372 -14 372 -2 0 5 6 5 12 1 18
-11 48 -12 48 -2 0 5 6 6 12 2 17 -11 48 -12 48 -3 0 4 8 6 17 5 19 -3 65 33
57 46 -3 4 0 8 5 8 19 0 12 71 -10 98 -11 15 -25 27 -30 27 -5 0 -13 5 -17 10
-9 12 -62 15 -62 4 0 -5 -7 -6 -15 -3 -8 3 -488 7 -1065 8 -870 1 -1056 -1
-1078 -13z"/>
</g>
</svg>
